{"title":"Another Period Season 1-3 S01-S03 1080p WEB-DL DD+ 2.0 x264-MIXE","magnet":"magnet:?xt=urn:btih:0355ba2cf29a2e361eab1809538e280c7e0ab44c&dn=Another+Period+Season+1-3+S01-S03+1080p+WEB-DL+DD%2B+2.0+x264-MIXE&tr=udp%3A%2F%2Ftracker.leechers-paradise.org%3A6969&tr=udp%3A%2F%2Fzer0day.ch%3A1337&tr=udp%3A%2F%2Fopen.demonii.com%3A1337&tr=udp%3A%2F%2Ftracker.coppersurfer.tk%3A6969&tr=udp%3A%2F%2Fexodus.desync.com%3A6969","uploader":"__rick_","categoryP":"video","categoryS":"hd___tv_shows","size":"49436685568","seeders":"1","leechers":"13","description":"A mockumentary-style period piece comedy that follows members of the wealthy Bellacourt family and their servants in early 20th-century Newport, Rhode Island. \r\n\r\nAnother Period S01 1080p WEB-DL DD+ 2.0 x264-TrollHD/Another Period S01E05 1080p WEB-DL DD+ 2.0 x264-TrollHD.mkv\r\nFile size                                : 1.49 GiB\r\nDuration                                 : 21 min 29 s\r\nOverall bit rate                         : 9 897 kb/s\r\n\r\nVideo\r\nFormat                                   : AVC\r\nDuration                                 : 21 min 29 s\r\nBit rate                                 : 9 671 kb/s\r\nWidth                                    : 1 920 pixels\r\nHeight                                   : 1 080 pixels\r\nDisplay aspect ratio                     : 16:9\r\nStream size                              : 1.45 GiB (98%)\r\n\r\nAudio\r\nFormat                                   : E-AC-3\r\nDuration                                 : 21 min 29 s\r\nBit rate mode                            : Constant\r\nBit rate                                 : 224 kb/s\r\nChannel(s)                               : 2 channels\r\nChannel positions                        : Front: L R\r\nSampling rate                            : 48.0 kHz\r\nFrame rate                               : 187.500 FPS (256 spf)\r\nCompression mode                         : Lossy\r\nStream size                              : 34.4 MiB (2%)\r\nTitle                                    : English\r\nLanguage                                 : English\r\nDefault                                  : Yes\r\nForced                                   : No\r\n\r\nText\r\nFormat                                   : UTF-8\r\nCodec ID                                 : S_TEXT/UTF8\r\nCodec ID/Info                            : UTF-8 Plain Text\r\nDuration                                 : 21 min 18 s\r\nBit rate                                 : 85 b/s\r\nCount of elements                        : 524\r\nStream size                              : 13.4 KiB (0%)\r\nTitle                                    : English\r\nLanguage                                 : English\r\nDefault                                  : No\r\nForced                                   : No\r\n\r\nScreenshots:\r\n <a href=\"\nhttps://imgpile.com/i/nB6Sk4\" rel=\"nofollow\" target=\"_NEW\">\nhttps://imgpile.com/i/nB6Sk4</a> <a href=\"\nhttps://imgpile.com/i/nB6a42\" rel=\"nofollow\" target=\"_NEW\">\nhttps://imgpile.com/i/nB6a42</a> <a href=\"\nhttps://imgpile.com/i/nB6pYM\" rel=\"nofollow\" target=\"_NEW\">\nhttps://imgpile.com/i/nB6pYM</a>","last_updated":"2018-04-25T12:11:57.840Z","parsed":{"xt":"urn:btih:0355ba2cf29a2e361eab1809538e280c7e0ab44c","dn":"Another Period Season 1-3 S01-S03 1080p WEB-DL DD  2.0 x264-MIXE","tr":["udp://exodus.desync.com:6969","udp://open.demonii.com:1337","udp://tracker.coppersurfer.tk:6969","udp://tracker.leechers-paradise.org:6969","udp://zer0day.ch:1337"],"infoHash":"0355ba2cf29a2e361eab1809538e280c7e0ab44c","infoHashBuffer":{"type":"Buffer","data":[3,85,186,44,242,154,46,54,30,171,24,9,83,142,40,12,126,10,180,76]},"name":"Another Period Season 1-3 S01-S03 1080p WEB-DL DD  2.0 x264-MIXE","announce":["udp://exodus.desync.com:6969","udp://open.demonii.com:1337","udp://tracker.coppersurfer.tk:6969","udp://tracker.leechers-paradise.org:6969","udp://zer0day.ch:1337"],"urlList":[]}}